# xmcd
# 
# Track frame offsets:
#     187
#     17942
#     35385
#     53485
#     70705
#     87787
#     104485
#     121275
#     138807
#     156280
# 
# Disc length: 2327
# 
# Revision: 1
# Processed by: cddbd v1.5.2PL0 Copyright (c) Steve Scherf et al.
# Submitted via: fre:ac v1.0.17
# 
DISCID=7909150a
DTITLE=神山純一 - SNOW PRELUDE
DYEAR=1994
DGENRE=New Age
TTITLE0=ホワイト・イリュージョン −白い幻想−
TTITLE1=SNOW PRELUDE −雪のプレリュード−
TTITLE2=WHISPERING SNOW −ウィスパリング・スノー−
TTITLE3=WHITE DREAM −ホワイト・ドリーム−
TTITLE4=夢の中のフェアリー・テイル−
TTITLE5=NIGHT SNOW −雪の夜−
TTITLE6=天使たちの眠る頃
TTITLE7=SNOW NOCTURNE −スノウ・ノクターン−
TTITLE8=白い夜の子守歌
TTITLE9=ダイヤモンド・ダスト
EXTD=YEAR: 1994
EXTT0=
EXTT1=
EXTT2=
EXTT3=
EXTT4=
EXTT5=
EXTT6=
EXTT7=
EXTT8=
EXTT9=
PLAYORDER=
